<?xml version="1.0" standalone="no"?>
<!DOCTYPE svg PUBLIC "-//W3C//DTD SVG 20010904//EN"
        "http://www.w3.org/TR/2001/REC-SVG-20010904/DTD/svg10.dtd">
<svg version="1.0" xmlns="http://www.w3.org/2000/svg"
     width="549.000000pt" height="549.000000pt" viewBox="0 0 549.000000 549.000000"
     preserveAspectRatio="xMidYMid meet">
    <metadata>
        Created by potrace 1.11, written by Peter Selinger 2001-2013
    </metadata>
    <g transform="translate(0.000000,549.000000) scale(0.100000,-0.100000)"
       fill="#000000" stroke="none">
        <path d="M3806 5468 c4 -13 20 -68 36 -122 43 -152 46 -142 14 64 -10 67 -13
75 -34 78 -21 3 -23 1 -16 -20z"/>
        <path d="M4101 5163 l1 -98 27 85 c25 76 26 86 13 98 -36 28 -42 16 -41 -85z"/>
        <path d="M3523 5077 c-10 -21 -7 -26 33 -50 25 -15 49 -27 54 -27 6 0 10 -4
10 -10 0 -5 4 -10 10 -10 5 0 37 -18 72 -40 34 -21 64 -37 67 -35 2 3 2 6 0 8
-2 2 -51 41 -109 87 -58 46 -110 87 -116 92 -7 5 -15 -1 -21 -15z"/>
        <path d="M3896 4943 c2 -122 11 -106 -105 -188 -39 -27 -68 -52 -63 -56 4 -3
48 -19 97 -34 93 -28 107 -36 111 -57 1 -7 15 -53 31 -102 l28 -88 50 71 c28
39 52 71 55 71 3 0 56 -102 118 -226 129 -258 127 -236 23 -289 -29 -14 -55
-34 -58 -43 -15 -46 -52 -119 -69 -137 -44 -46 -49 -106 -20 -220 6 -27 37
-72 60 -89 14 -10 33 -24 41 -30 14 -10 10 -22 -29 -96 l-44 -85 -46 -2 c-87
-4 -102 -17 -298 -278 l-183 -243 -38 34 c-20 19 -42 34 -47 34 -8 0 -80 140
-80 155 0 1 -22 50 -50 108 -27 58 -50 108 -50 110 0 3 42 27 93 53 301 153
305 156 348 222 53 84 21 185 -77 238 -21 12 -109 45 -194 73 -85 29 -160 54
-167 56 -8 3 8 39 46 102 93 158 134 245 120 253 -12 8 -385 4 -469 -4 -25 -3
-76 -8 -115 -12 -104 -12 -114 -10 -197 29 -245 117 -596 229 -820 263 -20 3
-65 12 -100 20 -161 37 -198 42 -309 40 -63 -2 -119 -5 -125 -8 -5 -3 -27 -9
-49 -12 -63 -10 -203 -52 -280 -85 -38 -16 -74 -26 -78 -22 -10 10 -12 195 -3
236 4 17 9 54 13 83 5 47 4 52 -13 52 -39 0 -86 -43 -190 -173 -129 -161 -194
-295 -193 -402 0 -106 53 -190 164 -260 61 -39 161 -85 184 -85 9 0 21 -4 27
-9 5 -5 41 -16 79 -25 87 -21 87 -21 115 -75 39 -77 139 -151 205 -151 20 0
29 -8 41 -35 8 -19 14 -37 15 -40 0 -2 18 -49 40 -102 56 -134 111 -232 165
-292 l46 -51 -7 -62 c-4 -35 -9 -72 -11 -83 -8 -42 -18 -266 -18 -402 1 -79
-2 -143 -6 -143 -16 0 -130 92 -166 135 -36 43 -46 49 -80 49 -21 1 -48 -2
-59 -6 -16 -6 -33 5 -77 46 -32 30 -58 61 -58 69 0 8 18 51 40 94 44 88 103
153 192 215 86 58 88 105 6 129 -77 22 -200 -20 -280 -96 -20 -19 -39 -32 -41
-28 -3 5 -14 46 -25 93 -43 176 -84 346 -87 360 -22 106 -68 266 -78 272 -35
22 -133 -3 -168 -44 -27 -30 -24 -74 10 -159 116 -294 125 -334 80 -362 -33
-21 -72 16 -200 193 -71 96 -136 181 -146 188 -20 14 -77 12 -108 -6 -31 -16
-62 -54 -69 -84 -10 -41 14 -85 85 -159 292 -302 298 -309 259 -341 -13 -10
-40 -18 -64 -19 -22 0 -93 -1 -158 -1 -107 -1 -119 -3 -147 -25 -41 -33 -41
-71 0 -112 17 -17 40 -32 52 -32 12 -1 31 -3 42 -4 11 -1 55 -5 98 -9 75 -6
79 -8 115 -48 66 -74 187 -187 242 -229 86 -65 125 -75 161 -43 19 17 21 16
67 -27 25 -24 49 -48 53 -52 3 -4 -7 -34 -22 -65 -96 -202 -80 -452 45 -712
42 -87 42 -87 120 -204 83 -122 295 -356 375 -412 21 -15 22 -14 52 53 25 54
32 84 34 144 2 60 7 86 26 116 76 126 167 212 388 368 138 96 151 104 151 83
0 -28 -39 -167 -59 -212 -12 -25 -21 -47 -21 -51 0 -5 -90 -145 -100 -155 -3
-3 -23 -27 -45 -55 -21 -27 -96 -108 -166 -178 -123 -123 -126 -128 -106 -141
201 -124 260 -170 411 -319 l121 -119 -30 -24 c-17 -14 -68 -44 -114 -67 -72
-36 -93 -42 -147 -42 -50 0 -68 4 -83 20 -44 44 -32 120 29 197 l30 37 -28 -9
c-123 -37 -219 -122 -250 -220 -34 -109 -5 -321 52 -375 51 -49 127 -67 246
-61 115 6 121 7 335 56 94 21 217 43 275 50 58 6 121 13 140 16 19 2 72 -3
117 -12 45 -8 106 -14 134 -12 l52 3 3 54 c1 29 6 57 11 61 4 4 42 11 83 14
144 13 246 37 357 84 l70 30 250 -2 c137 -2 254 -5 259 -9 6 -3 28 -8 50 -11
21 -2 77 -9 124 -16 283 -37 452 -3 506 102 25 49 36 185 20 272 -23 137 -139
244 -290 272 l-29 5 33 -33 c38 -39 69 -102 70 -141 0 -37 -38 -74 -85 -83
-53 -10 -154 18 -263 73 -51 26 -96 51 -98 55 -8 13 32 81 95 158 69 87 124
189 146 275 17 63 19 229 5 307 -25 136 -31 265 -14 343 6 33 10 62 7 65 -2 2
-14 5 -26 6 -96 5 -228 52 -287 102 l-25 21 25 17 c14 10 59 50 100 91 70 69
76 73 110 68 92 -14 188 -91 248 -197 15 -26 30 -48 34 -48 17 0 86 180 107
280 49 227 22 510 -61 645 -39 62 -133 179 -167 208 l-33 27 48 95 c70 136 65
132 161 138 117 7 154 32 208 144 11 23 43 66 70 96 28 30 82 89 120 132 39
42 75 82 81 89 99 106 145 164 150 190 13 71 -42 124 -95 90 -14 -9 -33 -24
-42 -33 -8 -9 -35 -32 -58 -51 -24 -19 -60 -50 -81 -70 -57 -53 -81 -72 -86
-67 -2 2 2 26 10 53 31 107 30 128 -4 168 -38 43 -98 65 -134 48 -21 -9 -27
-8 -41 15 -25 37 -129 82 -186 79 -43 -2 -74 -18 -77 -41 -8 -68 -15 -106 -21
-110 -5 -2 -33 39 -63 93 -92 160 -188 333 -188 337 0 3 40 6 89 7 l90 3 -65
84 c-35 46 -64 86 -64 90 0 4 15 53 34 109 19 56 33 102 31 102 -2 0 -49 -16
-105 -35 l-102 -34 -88 64 c-48 36 -90 65 -92 65 -2 0 -3 -48 -2 -107z m-1800
-2453 c21 -41 55 -103 76 -137 l38 -63 -43 -1 c-151 -4 -206 3 -351 48 -10 3
-39 16 -64 28 l-46 22 40 13 c50 17 192 91 258 135 28 19 51 33 52 32 1 -1 18
-36 40 -77z"/>
        <path d="M3780 4896 c0 -2 8 -10 18 -17 15 -13 16 -12 3 4 -13 16 -21 21 -21
13z"/>
        <path d="M4575 4870 c-45 -9 -109 -18 -171 -26 -96 -12 -100 -21 -9 -23 50 -1
123 -4 163 -6 l72 -3 0 34 c0 19 -3 34 -7 33 -5 -1 -26 -5 -48 -9z"/>
        <path d="M3825 4571 c-16 -10 -81 -43 -144 -75 -109 -55 -112 -58 -96 -76 17
-18 18 -18 59 8 22 15 43 29 46 33 3 3 42 32 88 63 45 32 82 60 82 62 0 2 -1
3 -2 3 -2 -1 -16 -9 -33 -18z"/>
    </g>
</svg>
