<svg width="817" height="221" xmlns="http://www.w3.org/2000/svg" xmlns:xlink="http://www.w3.org/1999/xlink" xml:space="preserve" overflow="hidden"><defs><clipPath id="clip0"><rect x="49" y="200" width="817" height="221"/></clipPath><clipPath id="clip1"><rect x="49" y="200" width="817" height="221"/></clipPath><clipPath id="clip2"><rect x="50" y="200" width="816" height="221"/></clipPath><clipPath id="clip3"><rect x="50" y="200" width="816" height="221"/></clipPath><clipPath id="clip4"><rect x="50" y="200" width="816" height="221"/></clipPath></defs><g clip-path="url(#clip0)" transform="translate(-49 -200)"><g clip-path="url(#clip1)"><g clip-path="url(#clip2)"><g clip-path="url(#clip3)"><g clip-path="url(#clip4)"><path d="M253.763 106.246C253.763 142.379 276.968 167.573 309.124 167.573 341.279 167.573 364.484 142.379 364.484 106.246 364.484 70.1123 341.279 44.9183 309.124 44.9183 276.968 44.9183 253.763 70.1123 253.763 106.246ZM343.268 106.246C343.268 132.103 329.18 148.844 309.124 148.844 289.068 148.844 274.979 132.103 274.979 106.246 274.979 80.3888 289.068 63.648 309.124 63.648 329.18 63.648 343.268 80.3888 343.268 106.246Z" fill="#74AA9C" fill-rule="nonzero" fill-opacity="1" transform="matrix(1.0013 0 0 1 50 200)"/><path d="M424.23 167.573C448.595 167.573 462.518 147.02 462.518 122.324 462.518 97.6268 448.595 77.0738 424.23 77.0738 412.959 77.0738 404.672 81.549 399.202 88.0133L399.202 78.7313 379.312 78.7313 379.312 195.585 399.202 195.585 399.202 156.634C404.672 163.098 412.959 167.573 424.23 167.573ZM398.705 119.837C398.705 103.428 407.987 94.4775 420.252 94.4775 434.672 94.4775 442.463 105.748 442.463 122.324 442.463 138.898 434.672 150.17 420.252 150.17 407.987 150.17 398.705 141.053 398.705 124.976Z" fill="#74AA9C" fill-rule="nonzero" fill-opacity="1" transform="matrix(1.0013 0 0 1 50 200)"/><path d="M516.346 167.573C533.75 167.573 547.507 158.457 553.64 143.208L536.567 136.744C533.915 145.694 526.125 150.667 516.346 150.667 503.583 150.667 494.633 141.551 493.141 126.633L554.137 126.633 554.137 120.003C554.137 96.135 540.711 77.0738 515.517 77.0738 490.323 77.0738 474.08 96.798 474.08 122.324 474.08 149.175 491.483 167.573 516.346 167.573ZM515.351 93.8145C527.948 93.8145 533.915 102.102 534.081 111.715L494.135 111.715C497.119 99.9473 505.075 93.8145 515.351 93.8145Z" fill="#74AA9C" fill-rule="nonzero" fill-opacity="1" transform="matrix(1.0013 0 0 1 50 200)"/><path d="M569.061 165.75 588.951 165.75 588.951 114.699C588.951 102.268 598.067 95.6377 607.018 95.6377 617.957 95.6377 622.267 103.428 622.267 114.202L622.267 165.75 642.157 165.75 642.157 108.401C642.157 89.6707 631.217 77.0738 612.985 77.0738 601.714 77.0738 593.924 82.212 588.951 88.0133L588.951 78.7313 569.061 78.7313Z" fill="#74AA9C" fill-rule="nonzero" fill-opacity="1" transform="matrix(1.0013 0 0 1 50 200)"/><path d="M700.411 46.7415 655.327 165.75 676.377 165.75 686.488 138.567 737.871 138.567 748.147 165.75 769.529 165.75 724.445 46.7415ZM712.014 70.278 730.909 120.003 693.45 120.003Z" fill="#74AA9C" fill-rule="nonzero" fill-opacity="1" transform="matrix(1.0013 0 0 1 50 200)"/><path d="M803.673 47.0868 782.457 47.0868 782.457 166.095 803.673 166.095Z" fill="#74AA9C" fill-rule="nonzero" fill-opacity="1" transform="matrix(1.0013 0 0 1 50 200)"/><path d="M205.157 90.4512C210.171 75.4024 208.444 58.9172 200.426 45.229 188.368 24.234 164.127 13.4327 140.452 18.5157 129.92 6.65072 114.789-0.0966875 98.9251-2.45359e-15 74.7256-0.05525 53.2541 15.5252 45.8092 38.5507 30.2632 41.7345 16.8443 51.4654 8.99194 65.2572-3.15616 86.1969-0.38675 112.593 15.8429 130.549 10.829 145.598 12.5556 162.083 20.5737 175.771 32.632 196.766 56.873 207.567 80.5476 202.484 91.0727 214.349 106.211 221.097 122.075 220.993 146.288 221.055 167.767 205.461 175.212 182.415 190.758 179.231 204.176 169.5 212.029 155.708 224.163 134.769 221.387 108.394 205.164 90.4373ZM122.089 206.552C112.399 206.566 103.014 203.175 95.5756 196.966 95.914 196.787 96.501 196.462 96.8809 196.227L140.887 170.812C143.139 169.535 144.52 167.138 144.506 164.548L144.506 102.509 163.105 113.249C163.305 113.345 163.436 113.539 163.464 113.76L163.464 165.135C163.436 187.981 144.935 206.504 122.089 206.552ZM33.1086 168.547C28.2535 160.163 26.5062 150.335 28.1706 140.798 28.4952 140.991 29.0684 141.343 29.4759 141.578L73.4825 166.993C75.7132 168.298 78.4757 168.298 80.7133 166.993L134.437 135.97 134.437 157.449C134.451 157.67 134.347 157.884 134.175 158.022L89.6915 183.706C69.8774 195.115 44.5729 188.333 33.1155 168.547ZM21.5268 72.488C26.3612 64.09 33.9926 57.6672 43.0812 54.3315 43.0812 54.7113 43.0605 55.3812 43.0605 55.8508L43.0605 106.688C43.0467 109.271 44.4279 111.667 46.6724 112.945L100.396 143.961 81.7976 154.7C81.6112 154.824 81.3763 154.845 81.1692 154.755L36.6791 129.05C16.9065 117.6 10.1246 92.302 21.5199 72.4949ZM174.334 108.048 120.611 77.0254 139.209 66.2931C139.396 66.1688 139.631 66.1481 139.838 66.2378L184.328 91.9222C204.135 103.366 210.924 128.705 199.48 148.512 194.639 156.896 187.014 163.319 177.933 166.662L177.933 114.305C177.953 111.722 176.579 109.333 174.341 108.048ZM192.843 80.1885C192.519 79.9882 191.945 79.6429 191.538 79.4081L147.531 53.9931C145.301 52.6878 142.538 52.6878 140.3 53.9931L86.5768 85.0159 86.5768 63.5375C86.5629 63.3165 86.6665 63.1024 86.8392 62.9643L131.322 37.3007C151.136 25.8708 176.469 32.6735 187.891 52.4944 192.719 60.8648 194.466 70.6647 192.829 80.1885ZM76.466 118.47 57.8606 107.731C57.6603 107.634 57.5291 107.441 57.5014 107.22L57.5014 55.8439C57.5153 32.9704 76.0723 14.4341 98.9458 14.4479 108.621 14.4479 117.986 17.8458 125.424 24.0338 125.086 24.2133 124.506 24.5379 124.119 24.7727L80.1125 50.1877C77.8611 51.4654 76.4798 53.8549 76.4936 56.4448L76.466 118.456ZM86.5698 96.6875 110.5 82.8681 134.43 96.6806 134.43 124.312 110.5 138.125 86.5698 124.312Z" fill="#74AA9C" fill-rule="nonzero" fill-opacity="1" transform="matrix(1.0013 0 0 1 50 200)"/></g></g></g></g></g></svg>